<svg width="1000" height="1000"><path d="M976.280643 276.975536C970.713791 243.992762 947.986056 214.878857 917.868733 199.55892 910.237545 195.67744 906.141749 197.47385 906.000219 188.480587 905.870125 180.246804 904.620658 172.038243 902.443382 164.091718 897.761449 147.003396 888.770714 131.191618 877.006559 117.823631 853.942869 91.622938 819.751195 73.874624 784.051296 73.874624 774.224244 73.874624 765.382186 79.23443 759.762439 70.854916 755.146271 63.971944 749.699506 57.627055 743.606561 51.953368 731.322034 40.51351 716.399899 31.787886 700.241163 26.761579 639.288861 7.796974 574.275072 50.856184 586.052092 116.650779 591.314439 146.051942 596.576786 175.454507 601.839133 204.857071 535.949003 187.911676 464.898026 193.215432 402.67195 220.518914 354.039915 241.857247 317.250662 275.549057 283.364922 314.880924 249.925216 353.692926 219.729265 392.45308 204.058021 441.876798 182.503986 509.853148 187.754896 584.926865 217.400452 649.809243 171.611885 649.566825 103.228536 637.132074 67.663019 672.05559 30.310505 708.733478 41.712972 768.474644 76.705221 802.379447 84.739556 810.164827 93.941873 816.802578 103.974786 821.904553 111.605975 825.787434 115.701771 823.991024 115.844731 832.984289 115.940514 839.071346 116.651024 845.142991 117.891914 851.105338 123.362982 877.411123 139.081402 900.995671 159.872033 918.204503 179.807765 934.705697 204.761383 945.719574 230.948744 947.373056 240.268287 947.962985 249.6636 947.346432 258.788718 945.363654 265.074657 956.080464 273.333439 965.655249 282.943192 973.650819 318.078399 1002.882429 374.152918 1010.624372 410.717723 979.289475 456.626376 939.949201 429.245302 868.22729 420.301742 818.272496 486.289087 835.322985 557.481594 830.051459 619.819177 802.700335 668.451212 781.3606 705.240465 747.668789 739.126205 708.33552 772.563053 669.523518 802.761862 630.763364 818.434536 581.339648 840.187285 512.74254 834.63044 436.937367 804.285812 371.654231 832.867749 371.805567 861.449683 371.958303 890.031618 372.108239 944.101841 372.395496 985.488678 331.550273 976.280643 276.975536 972.280629 253.269079 980.523687 302.119682 976.280643 276.975536L976.280643 276.975536ZM384.874897 942.821774C362.487405 969.065908 319.197774 952.329301 301.669483 929.614933 289.429272 913.755512 288.435703 892.078076 285.040411 873.105063 277.946749 881.337444 270.958879 892.134126 261.433473 897.855457 238.434114 911.669041 207.471899 900.341286 188.668408 884.77893 170.862776 870.040516 155.922057 845.51012 161.643304 821.866719 164.704072 809.214776 175.982163 799.3163 184.269538 789.695272 162.263749 789.58037 138.861245 792.367469 119.43016 780.145711 90.61806 762.026062 69.68161 701.061599 118.891202 693.571882 154.3495 688.175645 193.591941 693.431757 229.594915 693.622328 246.837286 693.712008 247.85373 702.495083 258.845902 715.825237 273.820932 733.98552 291.026134 750.409648 309.841061 764.726283 326.971924 777.75797 345.499501 789.025471 365.029229 798.259752 376.333054 803.605546 374.693305 816.627423 376.796242 828.378359 379.71834 844.695991 382.639006 861.013622 385.559672 877.332654 389.067905 896.927824 399.48109 925.695619 384.874897 942.821774 377.771228 951.149443 391.489643 935.067223 384.874897 942.821774L384.874897 942.821774ZM728.264125 653.138628C709.886655 674.469955 692.34121 697.311835 671.706404 716.619749 631.774898 753.981449 579.444496 777.365618 524.589423 783.015484 406.027215 795.224632 290.648718 723.176228 250.715783 613.345747 232.865833 564.25553 230.691416 510.00869 245.337639 459.854917 257.456333 418.360912 281.35062 385.027822 309.31068 352.573322 335.833996 321.786317 361.884115 292.364134 398.107247 271.87216 447.674239 243.831618 506.507878 233.313787 563.051304 241.620435 654.105204 254.99823 733.899598 316.584853 768.274261 400.344957 802.926265 484.779066 788.360101 583.382679 728.264125 653.138628L728.264125 653.138628ZM924.470613 316.496573C909.712883 333.554069 879.105209 328.30216 858.807788 328.194262 841.807019 328.104582 824.80768 328.013501 807.808341 327.923819 800.611749 327.885987 785.555231 330.816013 779.104888 327.772485 765.517998 308.180117 749.566553 290.203396 731.712314 274.238883 714.331272 258.698948 695.201834 245.052111 674.681395 233.764991 659.740676 225.545221 651.018705 226.440624 648.145214 210.383626 642.082293 176.520863 633.416074 142.293772 629.843512 108.145153 621.474649 61.40204 679.943742 58.43558 707.536397 79.370352 730.478572 96.776759 732.189801 122.576693 736.804539 148.357009 743.898201 140.124627 750.886071 129.329348 760.411477 123.608018 783.413695 109.794432 814.37448 121.120788 833.17797 136.683142 850.985031 151.42436 865.921463 175.951953 860.200214 199.595353 857.139447 212.245896 845.861356 222.144372 837.573981 231.765398 855.076539 231.859283 875.322493 229.386065 891.868652 235.946748 920.377678 247.253486 948.519297 288.704053 924.470613 316.496573 917.834423 324.167052 931.61574 308.240371 924.470613 316.496573L924.470613 316.496573Z"  ></path></svg>
