<svg width="1000" height="1000">
  <path d="M439.04383639 224.33271976a289.43717504 289.43717504 0 0 0-89.06329676 39.44690807c-27.5075319 18.12412161-51.158867 39.64960558-70.96389486 64.57645191-19.79019562 24.92684633-35.31880082 53.25011237-46.62042137 84.97474006C221.10449032 445.05050411 215.45368042 478.01109252 215.45368042 512c0 40.16870887 7.81621301 78.48347702 23.45358166 115.04318192 15.64725682 36.67341315 36.77228986 68.19039996 63.2910532 94.76354538 26.53359488 26.56820206 58.11485196 47.57952611 94.69927585 63.23667111 36.59431134 15.65714501 75.00301286 23.48324474 115.16183354 23.48324475 33.97407594 0 66.85061917-5.56182137 98.62468557-16.89310498 31.76417894-11.32633953 60.10227581-26.77584294 85.01429133-46.65502781 24.87740834-19.77536407 46.43255539-43.46625042 64.57150781-70.96389488a290.15403174 290.15403174 0 0 0 39.43701989-88.98913905c-8.3056532 0.72180079-17.71378249 1.13213991-28.0958481 1.1321392-45.21637032 0-88.35138342-8.85936294-129.45942212-26.46932463-41.1327577-17.71872658-76.62459295-41.50848964-106.44089858-71.27535655C505.84007277 458.54719011 482.10963587 423.01086095 464.42057238 381.91765379 446.7562286 340.81455917 437.94135957 297.65977044 437.94135957 252.4483442c0-10.40184195 0.39550758-19.77536407 1.15685891-28.01674772l-0.049438-0.09887672zM512.02976157 141.21192041c8.32542811 0 16.51242896 0.31146168 24.6054972 0.92944167-16.4036648 35.32374419-24.60549719 72.09603405-24.60549719 110.30698212 0 35.12104668 6.84227598 68.69961578 20.58121076 100.83458258 13.70927096 32.03114601 32.15474243 59.63261126 55.35124448 82.80933769 23.16683898 23.17178306 50.76830423 41.60736635 82.82416923 55.30674985 32.02125855 13.69938351 65.654209 20.60098567 100.78514387 20.60098568 38.23072298 0 75.03267594-8.24138293 110.35147675-24.62032874 0.59326099 8.14250622 0.86517214 16.28006837 0.86517213 24.62032874 0 33.57856837-4.43956893 66.43533597-13.29893256 98.46648269-8.90880166 32.03114601-21.28817928 61.69419283-37.24195443 88.78149743-15.92411206 27.19112615-35.31880082 52.11797247-58.09013296 74.87941716-22.77627549 22.76144395-47.74267309 42.12152555-74.87447306 58.09013223-27.15157487 15.96366261-56.75529553 28.32326532-88.78644152 37.28644905A368.16784419 368.16784419 0 0 1 512.00009921 882.78807959a368.20739474 368.20739474 0 0 1-98.48625832-13.28904439c-32.03609009-8.95824037-61.6249792-21.31784236-88.79138561-37.28150569-27.12685589-15.96860669-52.08336529-35.32868827-74.89919206-58.09013223-22.7515565-22.76144395-42.13635709-47.68829101-58.05058169-74.87941715-15.96366261-27.0922487-28.34304097-56.75529553-37.2518426-88.78149744A367.9354836 367.9354836 0 0 1 141.21201889 512c0-33.57856837 4.4494571-66.43533597 13.30882004-98.46648269 8.90880166-32.03114601 21.28817928-61.69419283 37.25184259-88.78149744 15.91916798-27.19112615 35.29902519-52.11797247 58.0505817-74.87941715 22.81582676-22.86526476 47.77233617-42.22534634 74.89919206-58.09013223C351.89380578 175.81880789 381.4826949 163.36032846 413.51878498 154.50096479A368.20739474 368.20739474 0 0 1 512.00009921 141.21192041h0.02966236z"  ></path>
</svg>